<?xml version="1.0" encoding="UTF-8" standalone="no"?>
<svg
   viewBox="0 0 448 512"
   version="1.1"
   id="svg4"
   sodipodi:docname="chevron-down-solid.svg"
   inkscape:version="1.1.1 (3bf5ae0d25, 2021-09-20)"
   xmlns:inkscape="http://www.inkscape.org/namespaces/inkscape"
   xmlns:sodipodi="http://sodipodi.sourceforge.net/DTD/sodipodi-0.dtd"
   xmlns="http://www.w3.org/2000/svg"
   xmlns:svg="http://www.w3.org/2000/svg">
  <defs
     id="defs8" />
  <sodipodi:namedview
     id="namedview6"
     pagecolor="#ffffff"
     bordercolor="#666666"
     borderopacity="1.0"
     inkscape:pageshadow="2"
     inkscape:pageopacity="0.0"
     inkscape:pagecheckerboard="0"
     showgrid="false"
     inkscape:zoom="1.703125"
     inkscape:cx="224"
     inkscape:cy="256.29358"
     inkscape:window-width="1920"
     inkscape:window-height="1057"
     inkscape:window-x="1912"
     inkscape:window-y="-8"
     inkscape:window-maximized="1"
     inkscape:current-layer="svg4" />
  <!--! Font Awesome Pro 6.1.1 by @fontawesome - https://fontawesome.com License - https://fontawesome.com/license (Commercial License) Copyright 2022 Fonticons, Inc. -->
  <path
     d="M224 416c-8.188 0-16.38-3.125-22.62-9.375l-192-192c-12.5-12.5-12.5-32.75 0-45.25s32.75-12.5 45.25 0L224 338.8l169.4-169.4c12.5-12.5 32.75-12.5 45.25 0s12.5 32.75 0 45.25l-192 192C240.4 412.9 232.2 416 224 416z"
     id="path2" />
  <path
     style="fill:#ffffff;fill-rule:evenodd;stroke-width:0.587156"
     d="m 216.95413,414.85593 c -4.78549,-1.23261 -7.52749,-2.50961 -11.44954,-5.33228 C 200.51186,405.93045 7.4052885,212.42307 5.1307655,208.73394 1.8573868,203.42475 0.64334098,198.90603 0.63484794,192 0.62848029,186.82223 0.8721159,185.1563 2.1561134,181.59793 5.3699717,172.6913 12.508333,165.51294 21.431193,162.21485 25.217091,160.8155 26.699743,160.58837 32,160.5958 c 6.783605,0.01 10.210982,0.86534 15.853211,3.95856 2.519793,1.38142 22.226337,20.74884 89.688069,88.14463 l 86.4587,86.37421 86.16515,-86.06578 c 53.14004,-53.07875 87.29036,-86.75968 89.10093,-87.87624 17.50919,-10.79775 40.36438,-2.3075 47.03974,17.47432 0.78733,2.33317 1.08975,4.94027 1.08975,9.3945 0,6.78562 -0.85032,10.19881 -3.9495,15.85321 -1.3846,2.52619 -23.1992,24.68133 -100.18601,101.74994 -57.28718,57.34807 -99.76188,99.42027 -101.63651,100.67341 -6.92187,4.62707 -17.12846,6.52172 -24.6694,4.57937 z"
     id="path84" />
</svg>
