<?xml version="1.0" encoding="UTF-8" standalone="no"?>
<svg
   viewBox="0 0 448 512"
   version="1.1"
   id="svg4"
   sodipodi:docname="chevron-up-solid.svg"
   inkscape:version="1.1.1 (3bf5ae0d25, 2021-09-20)"
   xmlns:inkscape="http://www.inkscape.org/namespaces/inkscape"
   xmlns:sodipodi="http://sodipodi.sourceforge.net/DTD/sodipodi-0.dtd"
   xmlns="http://www.w3.org/2000/svg"
   xmlns:svg="http://www.w3.org/2000/svg">
  <defs
     id="defs8" />
  <sodipodi:namedview
     id="namedview6"
     pagecolor="#ffffff"
     bordercolor="#666666"
     borderopacity="1.0"
     inkscape:pageshadow="2"
     inkscape:pageopacity="0.0"
     inkscape:pagecheckerboard="0"
     showgrid="false"
     inkscape:zoom="1.703125"
     inkscape:cx="224"
     inkscape:cy="256.29358"
     inkscape:window-width="1920"
     inkscape:window-height="1057"
     inkscape:window-x="-8"
     inkscape:window-y="-8"
     inkscape:window-maximized="1"
     inkscape:current-layer="svg4" />
  <!--! Font Awesome Pro 6.1.1 by @fontawesome - https://fontawesome.com License - https://fontawesome.com/license (Commercial License) Copyright 2022 Fonticons, Inc. -->
  <path
     d="M416 352c-8.188 0-16.38-3.125-22.62-9.375L224 173.3l-169.4 169.4c-12.5 12.5-32.75 12.5-45.25 0s-12.5-32.75 0-45.25l192-192c12.5-12.5 32.75-12.5 45.25 0l192 192c12.5 12.5 12.5 32.75 0 45.25C432.4 348.9 424.2 352 416 352z"
     id="path2" />
  <path
     style="fill:#ffffff;fill-rule:evenodd;stroke-width:0.587156"
     d="M 24.526768,350.86276 C 19.138265,349.55706 13.865719,346.53007 9.6678265,342.33217 -1.5406359,331.12371 -2.7796196,313.79644 6.7274633,301.21101 8.3131179,299.11193 53.554538,253.49846 107.26395,199.84776 l 97.65348,-97.54674 4.99083,-2.418813 c 9.62098,-4.662834 18.55516,-4.663739 28.18348,-0.0029 l 4.99083,2.415953 99.28188,99.31106 c 92.94348,92.9708 99.41824,99.57732 101.41789,103.48169 3.96134,7.73467 4.81264,14.7728 2.75838,22.8049 -2.65155,10.36744 -9.66493,18.09015 -19.96306,21.98213 -3.19666,1.20812 -4.88687,1.44972 -10.28408,1.46998 -7.22354,0.0271 -11.58366,-1.11907 -17.02752,-4.47625 -1.81056,-1.11656 -35.96054,-34.79714 -89.09997,-87.87529 L 224.0019,172.92866 137.24866,259.6132 c -85.576345,85.50856 -86.812988,86.71248 -91.156917,88.74476 -7.150971,3.34552 -14.549021,4.2048 -21.564975,2.50475 z"
     id="path84" />
</svg>
